<?xml version="1.0" encoding="UTF-8" standalone="no"?>
<!-- Created with Inkscape (http://www.inkscape.org/) -->

<svg
   width="48"
   height="48"
   viewBox="0 0 12.7 12.7"
   version="1.1"
   id="svg1"
   xmlns="http://www.w3.org/2000/svg"
   xmlns:svg="http://www.w3.org/2000/svg">
  <defs
     id="defs1" />
  <g
     id="layer1"
     transform="matrix(0.15687035,0,0,0.15563787,-5.5227037,-13.168519)"
     style="stroke-width:6.39988;fill:#686868;fill-opacity:1;stroke:none">
    <g
       id="layer2"
       transform="matrix(6.374691,0,0,6.4251715,35.205529,84.609992)"
       style="display:inline">
      <path
         style="display:inline;fill:#e4d259;fill-opacity:1;stroke:none;stroke-width:0.4;stroke-linecap:round;stroke-linejoin:round;stroke-miterlimit:17.8;stroke-opacity:1;paint-order:markers fill stroke"
         d="m 0.93438711,0.9818888 c 0,0 0,5.3752743 0.51120739,7.9825495 0.593617,3.0275827 4.8283508,2.7501417 4.8283508,2.7501417 0,0 4.1533917,0.367971 4.7604877,-2.7501417 0.507638,-2.6072752 0.507638,-7.9825495 0.507638,-7.9825495 H 6.2739453 Z"
         id="path3"/>
    </g>
    <g
       id="layer3"
       style="display:inline">
      <path
         style="display:inline;fill:none;fill-opacity:1;stroke:#2a280c;stroke-width:0.1;stroke-linecap:round;stroke-linejoin:round;stroke-miterlimit:17.8;stroke-dasharray:none;stroke-opacity:1;paint-order:markers fill stroke"
         d="m 1.000051,0.98219306 c 0,0 0,5.37527414 0.5112076,7.98255004 0.5936169,3.0275829 4.8283506,2.7501409 4.8283506,2.7501409 0,0 4.1539458,0.368105 4.7604888,-2.7501441 0.50746,-2.60886 0.50746,-7.944905 0.50746,-7.944905 L 6.3396092,0.98219305 Z M 3.0168048,3.0001531 c 0,0 0,3.3573141 0.6655506,5.96459 0.3198842,1.2531379 2.6572538,1.2082029 2.6572538,1.2082029 0,0 2.1950824,0.0016 2.5327174,-1.2082061 C 9.5999873,6.3574672 9.5999873,3.0001531 9.5999873,3.0001531 l -3.2603781,0.00484 z"
         id="path3-4"
         transform="matrix(6.374691,0,0,6.4251715,35.205529,84.609992)" />
      <rect
         style="fill:#2a280c;fill-opacity:1;stroke:none;stroke-width:0.639989;stroke-linecap:round;stroke-linejoin:round;stroke-miterlimit:17.8;stroke-dasharray:none;stroke-opacity:1;paint-order:markers fill stroke"
         id="rect27"
         width="6.7465477"
         height="6.799973"
         x="41.873016"
         y="91.144341" />
      <rect
         style="display:inline;fill:#2a280c;fill-opacity:1;stroke:none;stroke-width:0.639989;stroke-linecap:round;stroke-linejoin:round;stroke-miterlimit:17.8;stroke-dasharray:none;stroke-opacity:1;paint-order:markers fill stroke"
         id="rect27-9"
         width="6.7465477"
         height="6.799973"
         x="55.366112"
         y="91.144341" />
      <rect
         style="display:inline;fill:#2a280c;fill-opacity:1;stroke:none;stroke-width:0.639989;stroke-linecap:round;stroke-linejoin:round;stroke-miterlimit:17.8;stroke-dasharray:none;stroke-opacity:1;paint-order:markers fill stroke"
         id="rect27-9-7"
         width="6.7465477"
         height="6.799973"
         x="68.859207"
         y="91.144341" />
      <rect
         style="display:inline;fill:#2a280c;fill-opacity:1;stroke:none;stroke-width:0.639989;stroke-linecap:round;stroke-linejoin:round;stroke-miterlimit:17.8;stroke-dasharray:none;stroke-opacity:1;paint-order:markers fill stroke"
         id="rect27-9-7-5"
         width="6.7465477"
         height="6.799973"
         x="82.35231"
         y="91.144341" />
      <rect
         style="display:inline;fill:#2a280c;fill-opacity:1;stroke:none;stroke-width:0.639989;stroke-linecap:round;stroke-linejoin:round;stroke-miterlimit:17.8;stroke-dasharray:none;stroke-opacity:1;paint-order:markers fill stroke"
         id="rect27-9-7-5-9"
         width="6.7465477"
         height="7.0235596"
         x="95.845413"
         y="90.920753" />
      <rect
         style="display:inline;fill:#2a280c;fill-opacity:1;stroke:none;stroke-width:0.639989;stroke-linecap:round;stroke-linejoin:round;stroke-miterlimit:17.8;stroke-dasharray:none;stroke-opacity:1;paint-order:markers fill stroke"
         id="rect27-9-7-5-9-8"
         width="6.7465477"
         height="6.040751"
         x="89.098869"
         y="97.944313" />
      <rect
         style="display:inline;fill:#2a280c;fill-opacity:1;stroke:none;stroke-width:0.639989;stroke-linecap:round;stroke-linejoin:round;stroke-miterlimit:17.8;stroke-dasharray:none;stroke-opacity:1;paint-order:markers fill stroke"
         id="rect27-9-7-5-9-8-2"
         width="6.7465477"
         height="6.040751"
         x="75.605759"
         y="97.944313" />
      <rect
         style="display:inline;fill:#2a280c;fill-opacity:1;stroke:none;stroke-width:0.639989;stroke-linecap:round;stroke-linejoin:round;stroke-miterlimit:17.8;stroke-dasharray:none;stroke-opacity:1;paint-order:markers fill stroke"
         id="rect27-9-7-5-9-8-1"
         width="6.7465477"
         height="6.040751"
         x="62.112659"
         y="97.944313" />
      <rect
         style="display:inline;fill:#2a280c;fill-opacity:1;stroke:none;stroke-width:0.639989;stroke-linecap:round;stroke-linejoin:round;stroke-miterlimit:17.8;stroke-dasharray:none;stroke-opacity:1;paint-order:markers fill stroke"
         id="rect27-9-7-5-9-8-26"
         width="6.7465477"
         height="6.040751"
         x="48.619564"
         y="97.944313" />
      <rect
         style="display:inline;fill:#2a280c;fill-opacity:1;stroke:none;stroke-width:0.639989;stroke-linecap:round;stroke-linejoin:round;stroke-miterlimit:17.8;stroke-dasharray:none;stroke-opacity:1;paint-order:markers fill stroke"
         id="rect27-9-7-5-9-8-26-6"
         width="6.7465477"
         height="6.040751"
         x="41.873016"
         y="103.98506" />
      <rect
         style="display:inline;fill:#2a280c;fill-opacity:1;stroke:none;stroke-width:0.639989;stroke-linecap:round;stroke-linejoin:round;stroke-miterlimit:17.8;stroke-dasharray:none;stroke-opacity:1;paint-order:markers fill stroke"
         id="rect27-9-7-5-9-8-26-5"
         width="6.1502314"
         height="6.040751"
         x="48.619564"
         y="110.02581" />
      <rect
         style="display:inline;fill:#2a280c;fill-opacity:1;stroke:none;stroke-width:0.639997;stroke-linecap:round;stroke-linejoin:round;stroke-miterlimit:17.8;stroke-dasharray:none;stroke-opacity:1;paint-order:markers fill stroke"
         id="rect27-9-7-5-9-8-26-8"
         width="6.3026009"
         height="5.9482889"
         x="36.444736"
         y="118.67661"
         transform="matrix(0.99834779,-0.05746034,0.05089046,0.99870424,0,0)" />
      <rect
         style="display:inline;fill:#2a280c;fill-opacity:1;stroke:none;stroke-width:0.640012;stroke-linecap:round;stroke-linejoin:round;stroke-miterlimit:17.8;stroke-dasharray:none;stroke-opacity:1;paint-order:markers fill stroke"
         id="rect27-9-7-5-9-8-26-8-8"
         width="6.696404"
         height="5.9495707"
         x="103.10422"
         y="110.54814"
         transform="matrix(0.99871616,0.05065608,-0.0623157,0.99805649,0,0)" />
      <rect
         style="display:inline;fill:#2a280c;fill-opacity:1;stroke:none;stroke-width:0.639998;stroke-linecap:round;stroke-linejoin:round;stroke-miterlimit:17.8;stroke-dasharray:none;stroke-opacity:1;paint-order:markers fill stroke"
         id="rect27-9-7-5-9-8-26-9"
         width="6.4381871"
         height="6.0393853"
         x="41.308159"
         y="125.14718"
         transform="matrix(0.99757301,-0.06962821,0.06241469,0.9980503,0,0)" />
      <rect
         style="display:inline;fill:#2a280c;fill-opacity:1;stroke:none;stroke-width:0.64002;stroke-linecap:round;stroke-linejoin:round;stroke-miterlimit:17.8;stroke-dasharray:none;stroke-opacity:1;paint-order:markers fill stroke"
         id="rect27-9-7-5-9-8-26-9-1"
         width="6.1753507"
         height="6.0379934"
         x="28.421974"
         y="133.26062"
         transform="matrix(0.99192408,-0.12683306,0.1133258,0.99355788,0,0)" />
      <rect
         style="display:inline;fill:#2a280c;fill-opacity:1;stroke:none;stroke-width:0.639991;stroke-linecap:round;stroke-linejoin:round;stroke-miterlimit:17.8;stroke-dasharray:none;stroke-opacity:1;paint-order:markers fill stroke"
         id="rect27-9-7-5-9-8-26-9-1-2"
         width="6.540906"
         height="6.041934"
         x="25.266937"
         y="140.81494"
         transform="matrix(0.98371907,-0.17971306,0.17908587,0.98383345,0,0)" />
      <rect
         style="display:inline;fill:#2a280c;fill-opacity:1;stroke:none;stroke-width:0.640314;stroke-linecap:round;stroke-linejoin:round;stroke-miterlimit:17.8;stroke-dasharray:none;stroke-opacity:1;paint-order:markers fill stroke"
         id="rect27-9-7-5-9-8-26-9-1-2-0"
         width="6.7256441"
         height="5.7235198"
         x="-8.3244696"
         y="149.02673"
         transform="matrix(0.95043066,-0.31093659,0.35340944,0.93546874,0,0)" />
      <rect
         style="display:inline;fill:#2a280c;fill-opacity:1;stroke:none;stroke-width:0.641898;stroke-linecap:round;stroke-linejoin:round;stroke-miterlimit:17.8;stroke-dasharray:none;stroke-opacity:1;paint-order:markers fill stroke"
         id="rect27-9-7-5-9-8-26-9-1-2-0-8"
         width="5.8772426"
         height="5.3803239"
         x="-30.87661"
         y="148.23831"
         transform="matrix(0.79018514,-0.61286821,0.52327142,0.85216608,0,0)" />
      <rect
         style="display:inline;fill:#2a280c;fill-opacity:1;stroke:none;stroke-width:0.639998;stroke-linecap:round;stroke-linejoin:round;stroke-miterlimit:17.8;stroke-dasharray:none;stroke-opacity:1;paint-order:markers fill stroke"
         id="rect27-9-7-5-9-8-26-9-1-2-0-8-4"
         width="5.6663799"
         height="4.8358727"
         x="-113.37846"
         y="117.65701"
         transform="matrix(0.44942033,-0.89332042,0.89015874,0.45565054,0,0)" />
      <rect
         style="display:inline;fill:#2a280c;fill-opacity:1;stroke:none;stroke-width:0.664198;stroke-linecap:round;stroke-linejoin:round;stroke-miterlimit:17.8;stroke-dasharray:none;stroke-opacity:1;paint-order:markers fill stroke"
         id="rect27-9-7-5-9-8-26-9-1-2-0-8-4-6"
         width="5.3692303"
         height="6.1410365"
         x="-147.61754"
         y="144.84973"
         transform="matrix(0.55085767,-0.8345992,0.97951257,0.20138302,0,0)"
         ry="0" />
      <rect
         style="display:inline;fill:#2a280c;fill-opacity:1;stroke:none;stroke-width:0.667432;stroke-linecap:round;stroke-linejoin:round;stroke-miterlimit:17.8;stroke-dasharray:none;stroke-opacity:1;paint-order:markers fill stroke"
         id="rect27-9-7-5-9-8-26-9-1-2-0-8-4-6-95"
         width="6.0057039"
         height="6.9627786"
         x="-189.62877"
         y="43.122707"
         transform="matrix(-0.698423,-0.71568521,-0.93265503,0.36076946,0,0)"
         ry="0" />
      <rect
         style="display:inline;fill:#2a280c;fill-opacity:1;stroke:none;stroke-width:0.639989;stroke-linecap:round;stroke-linejoin:round;stroke-miterlimit:17.8;stroke-dasharray:none;stroke-opacity:1;paint-order:markers fill stroke"
         id="rect27-9-7-5-9-8-26-6-9"
         width="6.7465477"
         height="6.040751"
         x="96.024223"
         y="103.86191" />
      <rect
         style="display:inline;fill:#2a280c;fill-opacity:1;stroke:none;stroke-width:0.639989;stroke-linecap:round;stroke-linejoin:round;stroke-miterlimit:17.8;stroke-dasharray:none;stroke-opacity:1;paint-order:markers fill stroke"
         id="rect27-9-7-5-9-8-26-5-8"
         width="6.1502314"
         height="6.040751"
         x="102.77077"
         y="109.90266" />
      <rect
         style="display:inline;fill:#2a280c;fill-opacity:1;stroke:none;stroke-width:0.640005;stroke-linecap:round;stroke-linejoin:round;stroke-miterlimit:17.8;stroke-dasharray:none;stroke-opacity:1;paint-order:markers fill stroke"
         id="rect27-9-7-5-9-8-26-5-8-7"
         width="6.1526213"
         height="6.4242806"
         x="110.21854"
         y="113.48724"
         transform="matrix(0.99701439,0.077216,-0.06720642,0.99773909,0,0)" />
      <rect
         style="display:inline;fill:#2a280c;fill-opacity:1;stroke:none;stroke-width:0.639989;stroke-linecap:round;stroke-linejoin:round;stroke-miterlimit:17.8;stroke-dasharray:none;stroke-opacity:1;paint-order:markers fill stroke"
         id="rect27-9-7-5-9-8-26-5-8-7-8"
         width="6.412776"
         height="6.3577085"
         x="117.39588"
         y="119.7444"
         transform="matrix(0.9915046,0.13007164,-0.13304141,0.99111048,0,0)" />
      <rect
         style="display:inline;fill:#2a280c;fill-opacity:1;stroke:none;stroke-width:0.662676;stroke-linecap:round;stroke-linejoin:round;stroke-miterlimit:17.8;stroke-dasharray:none;stroke-opacity:1;paint-order:markers fill stroke"
         id="rect27-9-7-5-9-8-26-5-8-7-8-3"
         width="7.3032899"
         height="8.2893486"
         x="182.63144"
         y="106.25822"
         transform="matrix(0.92978466,0.3681039,-0.67866868,0.73444457,0,0)" />
      <rect
         style="display:inline;fill:#2a280c;fill-opacity:1;stroke:none;stroke-width:0.640065;stroke-linecap:round;stroke-linejoin:round;stroke-miterlimit:17.8;stroke-dasharray:none;stroke-opacity:1;paint-order:markers fill stroke"
         id="rect27-9-7-5-9-8-26-5-8-7-0"
         width="6.9013367"
         height="6.0496187"
         x="116.62995"
         y="109.96737"
         transform="matrix(0.98693403,0.16112486,-0.18265953,0.98317623,0,0)" />
      <rect
         style="display:inline;fill:#2a280c;fill-opacity:1;stroke:none;stroke-width:0.640064;stroke-linecap:round;stroke-linejoin:round;stroke-miterlimit:17.8;stroke-dasharray:none;stroke-opacity:1;paint-order:markers fill stroke"
         id="rect27-9-7-5-9-8-26-5-8-7-0-8"
         width="7.1620631"
         height="6.0612197"
         x="126.32654"
         y="111.05383"
         transform="matrix(0.96947054,0.24520781,-0.2661776,0.963924,0,0)" />
      <rect
         style="display:inline;fill:#2a280c;fill-opacity:1;stroke:none;stroke-width:0.64014;stroke-linecap:round;stroke-linejoin:round;stroke-miterlimit:17.8;stroke-dasharray:none;stroke-opacity:1;paint-order:markers fill stroke"
         id="rect27-9-7-5-9-8-26-9-1-2-0-8-4-6-9"
         width="5.4986382"
         height="5.8641438"
         x="-146.14825"
         y="95.158958"
         transform="matrix(0.19470913,-0.98086103,0.9863822,0.16446933,0,0)"
         ry="0" />
      <rect
         style="display:inline;fill:#2a280c;fill-opacity:1;stroke:none;stroke-width:0.64227;stroke-linecap:round;stroke-linejoin:round;stroke-miterlimit:17.8;stroke-dasharray:none;stroke-opacity:1;paint-order:markers fill stroke"
         id="rect27-9-7-5-9-8-26-9-1-2-0-8-4-6-9-1"
         width="5.5646801"
         height="7.4642315"
         x="-170.25766"
         y="-45.60746"
         transform="matrix(-0.24619569,-0.96922014,-0.99161693,0.12921247,0,0)"
         ry="0" />
      <rect
         style="display:inline;fill:#2a280c;fill-opacity:1;stroke:none;stroke-width:0.640425;stroke-linecap:round;stroke-linejoin:round;stroke-miterlimit:17.8;stroke-dasharray:none;stroke-opacity:1;paint-order:markers fill stroke"
         id="rect27-9-7-5-9-8-26-9-1-2-0-8-4-6-9-9"
         width="5.1431398"
         height="6.1935916"
         x="-155.8961"
         y="78.693596"
         transform="matrix(0.04210495,-0.99911319,0.99994938,-0.01006186,0,0)"
         ry="0" />
      <rect
         style="display:inline;fill:#2a280c;fill-opacity:1;stroke:none;stroke-width:0.639989;stroke-linecap:round;stroke-linejoin:round;stroke-miterlimit:17.8;stroke-dasharray:none;stroke-opacity:1;paint-order:markers fill stroke"
         id="rect27-9-7-5-9-8-9"
         width="6.7465477"
         height="6.040751"
         x="102.59196"
         y="97.944313" />
    </g>
    <g
       id="layer4"
       transform="matrix(0.18651675,0,0,0.18651675,53.04731,93.605234)"
       style="stroke-width:34.3126">
      <path
         style="display:inline;fill:#be1212;fill-opacity:1;stroke:none;stroke-width:3.43127;stroke-linecap:round;stroke-linejoin:round;stroke-miterlimit:17.8;stroke-dasharray:none;stroke-opacity:1;paint-order:markers fill stroke"
         d="m 84.341624,111.88604 c -1.116672,-1.88327 -4.035687,-2.81336 -4.250671,-4.9966 -0.242302,-2.46067 3.437348,-4.00343 3.599086,-6.47081 0.142929,-2.180426 -1.766341,-3.736669 -2.406457,-6.090319 -0.395939,-1.45584 -2.907039,-3.60623 -2.907039,-3.60623 0,0 -6.766091,-0.369918 -9.466521,0.26295 -3.98752,0.93451 -7.806161,5.89407 -9.104393,7.99222 -0.56977,0.92083 0,3.255699 0,3.255699 0,0 0.434149,-1.11738 0.784646,-1.59374 0.355607,-0.4833 0.815024,-0.892169 1.304038,-1.237289 1.690103,-1.19281 5.528233,-2.80619 5.528233,-2.80619 0,0 -2.907269,1.99963 -4.060049,3.31577 -0.558562,0.637719 -1.33774,2.166729 -1.33774,2.166729 0,0 1.737603,-1.2759 2.729684,-1.6596 1.363231,-0.527259 4.301603,-0.833969 4.301603,-0.833969 h 4.192255 c 0,0 2.677851,1.156979 2.896382,2.294509 0.548622,2.85577 -3.620724,3.44527 -5.187879,5.38592 -1.550186,1.91963 -2.596636,3.86369 -4.133885,6.14619 -1.671881,2.4824 -2.984906,2.73786 -2.984906,2.73786 l 6.413722,16.34511 c 1.266672,0 3.726978,6.04795 2.996566,6.04795 -0.669869,0 -8.44074,-2.62366 -11.043786,0 -2.627682,2.64849 0,11.23659 0,11.23659 l -7.544163,-3.70197 v -2.11226 l -3.373342,-5.42236 1.075239,3.55487 -2.981581,-1.86667 2.981581,3.73416 v 4.00643 l -2.705631,3.75649 5.003734,-3.75649 7.544163,3.75649 c 0,0 1.357021,0.62141 2.084056,0.65739 1.065758,0.0527 3.133977,-0.65739 3.133977,-0.65739 0,0 1.821273,-1.65293 2.327703,-2.74224 0.422437,-0.90864 0.501484,-2.96762 0.501484,-2.96762 0,0 0.928379,1.12467 1.554112,1.45785 0.656606,0.34961 2.172866,0.49552 2.172866,0.49552 0,0 0.73307,2.58446 0.285534,3.75649 -0.6625,1.73498 -4.012512,3.84033 -4.012512,3.84033 0,0 2.136301,-0.51161 2.996566,0 1.540136,0.91595 2.593902,4.73318 2.593902,4.73318 0,0 1.336797,-3.83205 2.956001,-4.73318 0.850706,-0.47344 2.91531,0 2.91531,0 0,0 -3.280955,-2.13298 -4.007825,-3.84033 -0.489885,-1.1507 0,-3.75649 0,-3.75649 0,0 1.655943,-0.13618 2.385266,-0.49552 0.640434,-0.31555 1.627245,-1.39865 1.627245,-1.39865 0,0 0.139124,2.00764 0.537284,2.90842 0.465072,1.05217 2.086142,2.74224 2.086142,2.74224 0,0 1.204918,0.62361 1.86157,0.65739 0.932443,0.048 2.723974,-0.65739 2.723974,-0.65739 l 7.698935,-3.75649 5.230387,3.75649 -3.279734,-3.75649 v -4.00643 l 3.279734,-3.73416 -3.279734,1.86667 1.209535,-3.55487 -3.160188,5.42236 0.03484,2.11226 -7.73377,3.70197 c 0,0 2.627682,-8.5881 0,-11.23659 -2.387421,-2.40633 -9.455702,0 -10.128966,0 -0.645283,0 1.712858,-6.04795 2.91531,-6.04795 l 4.261605,-16.34511 c 0,0 -0.858164,-2.9555 -1.633498,-4.2631 z"
         id="path17-7" />
      <path
         style="display:inline;fill:#be1212;fill-opacity:1;stroke:none;stroke-width:3.43126;stroke-linecap:round;stroke-linejoin:round;stroke-miterlimit:17.8;stroke-dasharray:none;stroke-opacity:1;paint-order:markers fill stroke"
         d="m 66.537186,115.00666 c -1.456655,1.61746 -6.414131,1.07268 -6.414131,1.07268 0,0 -3.449774,-1.41312 -3.494878,-2.94238 -0.04589,-1.55621 1.983867,-3.16603 3.619372,-4.20697 1.095167,-0.69705 -0.124494,-2.7967 -0.124494,-2.7967 0,0 -6.382285,-6.614533 -8.099895,-10.774874 -0.904002,-2.189642 -0.98679,-7.045104 -0.98679,-7.045104 l -1.83562,3.398226 c 0,0 -1.342556,-2.390328 -1.754744,-3.689279 -0.504192,-1.588887 -0.850188,-4.930617 -0.850188,-4.930617 l -1.19237,3.481115 -0.945674,-0.953165 0.162702,2.69372 -0.9545,-0.881599 0.368594,2.974408 -1.231724,-0.777024 0.86313,2.747092 -1.523192,-0.313504 1.162942,2.435821 -2.046941,-0.631989 1.687175,2.880207 -2.310708,-0.207208 1.898576,3.253181 -2.762017,-0.4318 2.370973,2.974073 -2.370973,-0.009 2.762017,1.86728 -3.24531,1.23656 3.24531,1.06995 -2.762017,2.16132 2.762017,0.26874 -2.094055,3.00073 2.363073,-0.2235 -1.544061,1.98623 h 2.046941 l -1.162942,2.04889 2.0262,-0.46024 -1.223024,2.6026 2.042336,-0.56709 -1.68257,2.781 2.59996,-0.81383 -2.015022,2.63201 2.705154,-0.38635 -1.607522,3.03068 2.807198,-1.51493 -1.606706,3.92264 2.514863,-1.88896 0.175766,3.44817 1.641735,-2.63222 0.255555,2.82327 1.246453,-1.75026 0.331749,1.36758 0.637301,-1.0113 0.740409,0.65904 0.490258,-0.52904 8.054716,2.2019 c 0,0 4.852965,2.83741 7.97414,2.83741 z"
         id="path17-1"/>
      <path
         style="display:inline;fill:#be1212;fill-opacity:1;stroke:none;stroke-width:3.43126;stroke-linecap:round;stroke-linejoin:round;stroke-miterlimit:17.8;stroke-dasharray:none;stroke-opacity:1;paint-order:markers fill stroke"
         d="m 85.975122,116.14914 c 1.45665,1.61746 5.648137,-0.0117 5.648137,-0.0117 0,0 3.44977,-1.41312 3.49487,-2.94238 0.0459,-1.55621 -1.98386,-3.16603 -3.61937,-4.20697 -1.09516,-0.69705 0.1245,-2.7967 0.1245,-2.7967 0,0 6.38228,-6.614541 8.09989,-10.774881 0.904001,-2.18964 0.986791,-7.0451 0.986791,-7.0451 l 1.83562,3.39822 c 0,0 1.34256,-2.39032 1.75475,-3.68927 0.50419,-1.58889 0.85018,-4.930622 0.85018,-4.930622 l 1.19237,3.481112 0.94568,-0.95316 -0.1627,2.69372 0.9545,-0.8816 -0.3686,2.97441 1.23173,-0.77703 -0.86313,2.7471 1.52319,-0.31351 -1.16294,2.43582 2.04693,-0.63199 -1.68717,2.88021 2.31071,-0.20721 -1.89858,3.25318 2.76202,-0.4318 -2.37097,2.974081 2.37097,-0.009 -2.76202,1.86728 3.24531,1.23656 -3.24531,1.06995 2.76202,2.16132 -2.76202,0.26874 2.09406,3.00073 -2.36308,-0.2235 1.54406,1.98623 h -2.04693 l 1.16294,2.04889 -2.0262,-0.46024 1.22302,2.6026 -2.04233,-0.56709 1.68257,2.781 -2.59996,-0.81383 2.01502,2.63201 -2.70516,-0.38635 1.60753,3.03068 -2.8072,-1.51493 1.6067,3.92264 -2.51486,-1.88896 -0.17577,3.44817 -1.64173,-2.63222 -0.25556,2.82327 -1.246451,-1.75026 -0.33175,1.36758 -0.6373,-1.0113 -0.74041,0.65904 -0.49026,-0.52904 -8.05471,2.2019 c 0,0 -4.85297,2.83741 -7.974143,2.83741 z"
         id="path17-1-1" />
    </g>
    <g
       id="layer4-2"
       transform="matrix(0.18651677,0,0,0.18651675,70.010152,94.306815)"
       style="fill:#686868;fill-opacity:1;stroke:none;stroke-width:34.3126">
      <path
         style="display:inline;fill:#be1212;fill-opacity:1;stroke:none;stroke-width:3.43127;stroke-linecap:round;stroke-linejoin:round;stroke-miterlimit:17.8;stroke-dasharray:none;stroke-opacity:1;paint-order:markers fill stroke"
         d="m 84.341624,111.88604 c -1.116672,-1.88327 -4.035687,-2.81336 -4.250671,-4.9966 -0.242302,-2.46067 3.437348,-4.00343 3.599086,-6.47081 0.142929,-2.180426 -1.766341,-3.736669 -2.406457,-6.090319 -0.395939,-1.45584 -2.907039,-3.60623 -2.907039,-3.60623 0,0 -6.766091,-0.369918 -9.466521,0.26295 -3.98752,0.93451 -7.806161,5.89407 -9.104393,7.99222 -0.56977,0.92083 0,3.255699 0,3.255699 0,0 0.434149,-1.11738 0.784646,-1.59374 0.355607,-0.4833 0.815024,-0.892169 1.304038,-1.237289 1.690103,-1.19281 5.528233,-2.80619 5.528233,-2.80619 0,0 -2.907269,1.99963 -4.060049,3.31577 -0.558562,0.637719 -1.33774,2.166729 -1.33774,2.166729 0,0 1.737603,-1.2759 2.729684,-1.6596 1.363231,-0.527259 4.301603,-0.833969 4.301603,-0.833969 h 4.192255 c 0,0 2.677851,1.156979 2.896382,2.294509 0.548622,2.85577 -3.620724,3.44527 -5.187879,5.38592 -1.550186,1.91963 -2.596636,3.86369 -4.133885,6.14619 -1.671881,2.4824 -2.984906,2.73786 -2.984906,2.73786 l 6.413722,16.34511 c 1.266672,0 3.726978,6.04795 2.996566,6.04795 -0.669869,0 -8.44074,-2.62366 -11.043786,0 -2.627682,2.64849 0,11.23659 0,11.23659 l -7.544163,-3.70197 v -2.11226 l -3.373342,-5.42236 1.075239,3.55487 -2.981581,-1.86667 2.981581,3.73416 v 4.00643 l -2.705631,3.75649 5.003734,-3.75649 7.544163,3.75649 c 0,0 1.357021,0.62141 2.084056,0.65739 1.065758,0.0527 3.133977,-0.65739 3.133977,-0.65739 0,0 1.821273,-1.65293 2.327703,-2.74224 0.422437,-0.90864 0.501484,-2.96762 0.501484,-2.96762 0,0 0.928379,1.12467 1.554112,1.45785 0.656606,0.34961 2.172866,0.49552 2.172866,0.49552 0,0 0.73307,2.58446 0.285534,3.75649 -0.6625,1.73498 -4.012512,3.84033 -4.012512,3.84033 0,0 2.136301,-0.51161 2.996566,0 1.540136,0.91595 2.593902,4.73318 2.593902,4.73318 0,0 1.336797,-3.83205 2.956001,-4.73318 0.850706,-0.47344 2.91531,0 2.91531,0 0,0 -3.280955,-2.13298 -4.007825,-3.84033 -0.489885,-1.1507 0,-3.75649 0,-3.75649 0,0 1.655943,-0.13618 2.385266,-0.49552 0.640434,-0.31555 1.627245,-1.39865 1.627245,-1.39865 0,0 0.139124,2.00764 0.537284,2.90842 0.465072,1.05217 2.086142,2.74224 2.086142,2.74224 0,0 1.204918,0.62361 1.86157,0.65739 0.932443,0.048 2.723974,-0.65739 2.723974,-0.65739 l 7.698935,-3.75649 5.230387,3.75649 -3.279734,-3.75649 v -4.00643 l 3.279734,-3.73416 -3.279734,1.86667 1.209535,-3.55487 -3.160188,5.42236 0.03484,2.11226 -7.73377,3.70197 c 0,0 2.627682,-8.5881 0,-11.23659 -2.387421,-2.40633 -9.455702,0 -10.128966,0 -0.645283,0 1.712858,-6.04795 2.91531,-6.04795 l 4.261605,-16.34511 c 0,0 -0.858164,-2.9555 -1.633498,-4.2631 z"
         id="path17-7-9"/>
      <path
         style="display:inline;fill:#be1212;fill-opacity:1;stroke:none;stroke-width:3.43126;stroke-linecap:round;stroke-linejoin:round;stroke-miterlimit:17.8;stroke-dasharray:none;stroke-opacity:1;paint-order:markers fill stroke"
         d="m 66.537186,115.00666 c -1.456655,1.61746 -6.414131,1.07268 -6.414131,1.07268 0,0 -3.449774,-1.41312 -3.494878,-2.94238 -0.04589,-1.55621 1.983867,-3.16603 3.619372,-4.20697 1.095167,-0.69705 -0.124494,-2.7967 -0.124494,-2.7967 0,0 -6.382285,-6.614533 -8.099895,-10.774874 -0.904002,-2.189642 -0.98679,-7.045104 -0.98679,-7.045104 l -1.83562,3.398226 c 0,0 -1.342556,-2.390328 -1.754744,-3.689279 -0.504192,-1.588887 -0.850188,-4.930617 -0.850188,-4.930617 l -1.19237,3.481115 -0.945674,-0.953165 0.162702,2.69372 -0.9545,-0.881599 0.368594,2.974408 -1.231724,-0.777024 0.86313,2.747092 -1.523192,-0.313504 1.162942,2.435821 -2.046941,-0.631989 1.687175,2.880207 -2.310708,-0.207208 1.898576,3.253181 -2.762017,-0.4318 2.370973,2.974073 -2.370973,-0.009 2.762017,1.86728 -3.24531,1.23656 3.24531,1.06995 -2.762017,2.16132 2.762017,0.26874 -2.094055,3.00073 2.363073,-0.2235 -1.544061,1.98623 h 2.046941 l -1.162942,2.04889 2.0262,-0.46024 -1.223024,2.6026 2.042336,-0.56709 -1.68257,2.781 2.59996,-0.81383 -2.015022,2.63201 2.705154,-0.38635 -1.607522,3.03068 2.807198,-1.51493 -1.606706,3.92264 2.514863,-1.88896 0.175766,3.44817 1.641735,-2.63222 0.255555,2.82327 1.246453,-1.75026 0.331749,1.36758 0.637301,-1.0113 0.740409,0.65904 0.490258,-0.52904 8.054716,2.2019 c 0,0 4.852965,2.83741 7.97414,2.83741 z"
         id="path17-1-0"/>
      <path
         style="display:inline;fill:#be1212;fill-opacity:1;stroke:none;stroke-width:3.43126;stroke-linecap:round;stroke-linejoin:round;stroke-miterlimit:17.8;stroke-dasharray:none;stroke-opacity:1;paint-order:markers fill stroke"
         d="m 85.975122,116.14914 c 1.45665,1.61746 5.648137,-0.0117 5.648137,-0.0117 0,0 3.44977,-1.41312 3.49487,-2.94238 0.0459,-1.55621 -1.98386,-3.16603 -3.61937,-4.20697 -1.09516,-0.69705 0.1245,-2.7967 0.1245,-2.7967 0,0 6.38228,-6.614541 8.09989,-10.774881 0.904001,-2.18964 0.986791,-7.0451 0.986791,-7.0451 l 1.83562,3.39822 c 0,0 1.34256,-2.39032 1.75475,-3.68927 0.50419,-1.58889 0.85018,-4.930622 0.85018,-4.930622 l 1.19237,3.481112 0.94568,-0.95316 -0.1627,2.69372 0.9545,-0.8816 -0.3686,2.97441 1.23173,-0.77703 -0.86313,2.7471 1.52319,-0.31351 -1.16294,2.43582 2.04693,-0.63199 -1.68717,2.88021 2.31071,-0.20721 -1.89858,3.25318 2.76202,-0.4318 -2.37097,2.974081 2.37097,-0.009 -2.76202,1.86728 3.24531,1.23656 -3.24531,1.06995 2.76202,2.16132 -2.76202,0.26874 2.09406,3.00073 -2.36308,-0.2235 1.54406,1.98623 h -2.04693 l 1.16294,2.04889 -2.0262,-0.46024 1.22302,2.6026 -2.04233,-0.56709 1.68257,2.781 -2.59996,-0.81383 2.01502,2.63201 -2.70516,-0.38635 1.60753,3.03068 -2.8072,-1.51493 1.6067,3.92264 -2.51486,-1.88896 -0.17577,3.44817 -1.64173,-2.63222 -0.25556,2.82327 -1.246451,-1.75026 -0.33175,1.36758 -0.6373,-1.0113 -0.74041,0.65904 -0.49026,-0.52904 -8.05471,2.2019 c 0,0 -4.85297,2.83741 -7.974143,2.83741 z"
         id="path17-1-1-3" />
    </g>
    <g
       id="layer4-1"
       transform="matrix(0.18651675,0,0,0.18651675,61.514447,111.1863)"
       style="fill:#686868;fill-opacity:1;stroke:none;stroke-width:34.3126">
      <path
         style="display:inline;fill:#be1212;fill-opacity:1;stroke:none;stroke-width:3.43127;stroke-linecap:round;stroke-linejoin:round;stroke-miterlimit:17.8;stroke-dasharray:none;stroke-opacity:1;paint-order:markers fill stroke"
         d="m 84.341624,111.88604 c -1.116672,-1.88327 -4.035687,-2.81336 -4.250671,-4.9966 -0.242302,-2.46067 3.437348,-4.00343 3.599086,-6.47081 0.142929,-2.180426 -1.766341,-3.736669 -2.406457,-6.090319 -0.395939,-1.45584 -2.907039,-3.60623 -2.907039,-3.60623 0,0 -6.766091,-0.369918 -9.466521,0.26295 -3.98752,0.93451 -7.806161,5.89407 -9.104393,7.99222 -0.56977,0.92083 0,3.255699 0,3.255699 0,0 0.434149,-1.11738 0.784646,-1.59374 0.355607,-0.4833 0.815024,-0.892169 1.304038,-1.237289 1.690103,-1.19281 5.528233,-2.80619 5.528233,-2.80619 0,0 -2.907269,1.99963 -4.060049,3.31577 -0.558562,0.637719 -1.33774,2.166729 -1.33774,2.166729 0,0 1.737603,-1.2759 2.729684,-1.6596 1.363231,-0.527259 4.301603,-0.833969 4.301603,-0.833969 h 4.192255 c 0,0 2.677851,1.156979 2.896382,2.294509 0.548622,2.85577 -3.620724,3.44527 -5.187879,5.38592 -1.550186,1.91963 -2.596636,3.86369 -4.133885,6.14619 -1.671881,2.4824 -2.984906,2.73786 -2.984906,2.73786 l 6.413722,16.34511 c 1.266672,0 3.726978,6.04795 2.996566,6.04795 -0.669869,0 -8.44074,-2.62366 -11.043786,0 -2.627682,2.64849 0,11.23659 0,11.23659 l -7.544163,-3.70197 v -2.11226 l -3.373342,-5.42236 1.075239,3.55487 -2.981581,-1.86667 2.981581,3.73416 v 4.00643 l -2.705631,3.75649 5.003734,-3.75649 7.544163,3.75649 c 0,0 1.357021,0.62141 2.084056,0.65739 1.065758,0.0527 3.133977,-0.65739 3.133977,-0.65739 0,0 1.821273,-1.65293 2.327703,-2.74224 0.422437,-0.90864 0.501484,-2.96762 0.501484,-2.96762 0,0 0.928379,1.12467 1.554112,1.45785 0.656606,0.34961 2.172866,0.49552 2.172866,0.49552 0,0 0.73307,2.58446 0.285534,3.75649 -0.6625,1.73498 -4.012512,3.84033 -4.012512,3.84033 0,0 2.136301,-0.51161 2.996566,0 1.540136,0.91595 2.593902,4.73318 2.593902,4.73318 0,0 1.336797,-3.83205 2.956001,-4.73318 0.850706,-0.47344 2.91531,0 2.91531,0 0,0 -3.280955,-2.13298 -4.007825,-3.84033 -0.489885,-1.1507 0,-3.75649 0,-3.75649 0,0 1.655943,-0.13618 2.385266,-0.49552 0.640434,-0.31555 1.627245,-1.39865 1.627245,-1.39865 0,0 0.139124,2.00764 0.537284,2.90842 0.465072,1.05217 2.086142,2.74224 2.086142,2.74224 0,0 1.204918,0.62361 1.86157,0.65739 0.932443,0.048 2.723974,-0.65739 2.723974,-0.65739 l 7.698935,-3.75649 5.230387,3.75649 -3.279734,-3.75649 v -4.00643 l 3.279734,-3.73416 -3.279734,1.86667 1.209535,-3.55487 -3.160188,5.42236 0.03484,2.11226 -7.73377,3.70197 c 0,0 2.627682,-8.5881 0,-11.23659 -2.387421,-2.40633 -9.455702,0 -10.128966,0 -0.645283,0 1.712858,-6.04795 2.91531,-6.04795 l 4.261605,-16.34511 c 0,0 -0.858164,-2.9555 -1.633498,-4.2631 z"
         id="path17-7-4"/>
      <path
         style="display:inline;fill:#be1212;fill-opacity:1;stroke:none;stroke-width:3.43126;stroke-linecap:round;stroke-linejoin:round;stroke-miterlimit:17.8;stroke-dasharray:none;stroke-opacity:1;paint-order:markers fill stroke"
         d="m 66.537186,115.00666 c -1.456655,1.61746 -6.414131,1.07268 -6.414131,1.07268 0,0 -3.449774,-1.41312 -3.494878,-2.94238 -0.04589,-1.55621 1.983867,-3.16603 3.619372,-4.20697 1.095167,-0.69705 -0.124494,-2.7967 -0.124494,-2.7967 0,0 -6.382285,-6.614533 -8.099895,-10.774874 -0.904002,-2.189642 -0.98679,-7.045104 -0.98679,-7.045104 l -1.83562,3.398226 c 0,0 -1.342556,-2.390328 -1.754744,-3.689279 -0.504192,-1.588887 -0.850188,-4.930617 -0.850188,-4.930617 l -1.19237,3.481115 -0.945674,-0.953165 0.162702,2.69372 -0.9545,-0.881599 0.368594,2.974408 -1.231724,-0.777024 0.86313,2.747092 -1.523192,-0.313504 1.162942,2.435821 -2.046941,-0.631989 1.687175,2.880207 -2.310708,-0.207208 1.898576,3.253181 -2.762017,-0.4318 2.370973,2.974073 -2.370973,-0.009 2.762017,1.86728 -3.24531,1.23656 3.24531,1.06995 -2.762017,2.16132 2.762017,0.26874 -2.094055,3.00073 2.363073,-0.2235 -1.544061,1.98623 h 2.046941 l -1.162942,2.04889 2.0262,-0.46024 -1.223024,2.6026 2.042336,-0.56709 -1.68257,2.781 2.59996,-0.81383 -2.015022,2.63201 2.705154,-0.38635 -1.607522,3.03068 2.807198,-1.51493 -1.606706,3.92264 2.514863,-1.88896 0.175766,3.44817 1.641735,-2.63222 0.255555,2.82327 1.246453,-1.75026 0.331749,1.36758 0.637301,-1.0113 0.740409,0.65904 0.490258,-0.52904 8.054716,2.2019 c 0,0 4.852965,2.83741 7.97414,2.83741 z"
         id="path17-1-14"/>
      <path
         style="display:inline;fill:#be1212;fill-opacity:1;stroke:none;stroke-width:3.43126;stroke-linecap:round;stroke-linejoin:round;stroke-miterlimit:17.8;stroke-dasharray:none;stroke-opacity:1;paint-order:markers fill stroke"
         d="m 85.975122,116.14914 c 1.45665,1.61746 5.648137,-0.0117 5.648137,-0.0117 0,0 3.44977,-1.41312 3.49487,-2.94238 0.0459,-1.55621 -1.98386,-3.16603 -3.61937,-4.20697 -1.09516,-0.69705 0.1245,-2.7967 0.1245,-2.7967 0,0 6.38228,-6.614541 8.09989,-10.774881 0.904001,-2.18964 0.986791,-7.0451 0.986791,-7.0451 l 1.83562,3.39822 c 0,0 1.34256,-2.39032 1.75475,-3.68927 0.50419,-1.58889 0.85018,-4.930622 0.85018,-4.930622 l 1.19237,3.481112 0.94568,-0.95316 -0.1627,2.69372 0.9545,-0.8816 -0.3686,2.97441 1.23173,-0.77703 -0.86313,2.7471 1.52319,-0.31351 -1.16294,2.43582 2.04693,-0.63199 -1.68717,2.88021 2.31071,-0.20721 -1.89858,3.25318 2.76202,-0.4318 -2.37097,2.974081 2.37097,-0.009 -2.76202,1.86728 3.24531,1.23656 -3.24531,1.06995 2.76202,2.16132 -2.76202,0.26874 2.09406,3.00073 -2.36308,-0.2235 1.54406,1.98623 h -2.04693 l 1.16294,2.04889 -2.0262,-0.46024 1.22302,2.6026 -2.04233,-0.56709 1.68257,2.781 -2.59996,-0.81383 2.01502,2.63201 -2.70516,-0.38635 1.60753,3.03068 -2.8072,-1.51493 1.6067,3.92264 -2.51486,-1.88896 -0.17577,3.44817 -1.64173,-2.63222 -0.25556,2.82327 -1.246451,-1.75026 -0.33175,1.36758 -0.6373,-1.0113 -0.74041,0.65904 -0.49026,-0.52904 -8.05471,2.2019 c 0,0 -4.85297,2.83741 -7.974143,2.83741 z"
         id="path17-1-1-32"/>
    </g>
  </g>
</svg>
